# xmcd
#
# Track frame offsets:
#       150
#       21727
#       38512
#       55571
#       100055
#       120106
#       154729
#       176245
#       197076
#       218210
#
# Disc length: 3188 seconds
#
# Revision: 0
# Processed by: cddbd v1.5.1PL2 Copyright (c) Steve Scherf et al.
# Submitted via: WhereIsIt 3.65
#
DISCID=7e0c720a
DTITLE=Paul Weller - The Wiltern - Los Angeles Cd2
DYEAR=1900
DGENRE=
TTITLE0=that's entertainment
TTITLE1=here's the good news
TTITLE2=you do something to me
TTITLE3=the changingman
TTITLE4=foot of the mountain
TTITLE5=shout to the top
TTITLE6=we all need love (with tim burgess)
TTITLE7=broken stones
TTITLE8=sunflower
TTITLE9=town called malice
EXTD=
EXTT0=
EXTT1=
EXTT2=
EXTT3=
EXTT4=
EXTT5=
EXTT6=
EXTT7=
EXTT8=
EXTT9=
PLAYORDER=
